<svg version="1.2" xmlns="http://www.w3.org/2000/svg" viewBox="0 0 512 256" width="512" height="256">
	<title>adiga</title>
	<style>
		.s0 { fill: #fdfc02 } 
	</style>
	<path id="arrow" class="s0" d="m256 101l5 24-3 3v89l3 3v24l-5-4-5 4v-24l3-3v-89l-3-3z"/>
	<path id="arrow copy" class="s0" d="m210 117.8l19.3 15.1-0.4 4.2 57.2 68.2 4.3 0.4 15.4 18.3-6.4 0.2-1.2 6.3-15.5-18.4 0.4-4.2-57.2-68.2-4.3-0.4z"/>
	<path id="arrow copy 2" class="s0" d="m302 117.7l-11.7 21.7-4.2 0.3-57.2 68.2 0.4 4.2-15.4 18.4-1.3-6.3-6.4-0.1 15.4-18.4 4.3-0.4 57.2-68.2-0.4-4.2z"/>
	<path id="star" class="s0" d="m257.8 64.8c-0.2-0.5-0.7-0.8-1.3-0.8-0.6 0-1.1 0.3-1.4 0.8l-3 6.2-6.7 1c-0.6 0.1-1.1 0.5-1.2 1.1-0.2 0.5-0.1 1.1 0.3 1.5l4.9 4.8-1.1 6.9c-0.1 0.5 0.1 1.1 0.6 1.4 0.5 0.4 1.1 0.4 1.6 0.1l6-3.2 6 3.2c0.5 0.3 1.1 0.3 1.6-0.1 0.5-0.3 0.7-0.9 0.6-1.4l-1.1-6.9 4.9-4.8c0.4-0.4 0.5-1 0.3-1.5-0.2-0.6-0.6-1-1.2-1.1l-6.7-1z"/>
	<path id="star copy 4" class="s0" d="m320.8 64.8c-0.2-0.5-0.7-0.8-1.3-0.8-0.6 0-1.1 0.3-1.4 0.8l-3 6.2-6.7 1c-0.6 0.1-1.1 0.5-1.2 1.1-0.2 0.5-0.1 1.1 0.3 1.5l4.9 4.8-1.1 6.9c-0.1 0.5 0.1 1.1 0.6 1.4 0.5 0.4 1.1 0.4 1.6 0.1l6-3.2 6 3.2c0.5 0.3 1.1 0.3 1.6-0.1 0.5-0.3 0.7-0.9 0.6-1.4l-1.1-6.9 4.9-4.8c0.4-0.4 0.5-1 0.3-1.5-0.2-0.6-0.6-1-1.2-1.1l-6.7-1z"/>
	<path id="star copy 5" class="s0" d="m193.8 64.8c-0.2-0.5-0.7-0.8-1.3-0.8-0.6 0-1.1 0.3-1.4 0.8l-3 6.2-6.7 1c-0.6 0.1-1.1 0.5-1.2 1.1-0.2 0.5-0.1 1.1 0.3 1.5l4.9 4.8-1.1 6.9c-0.1 0.5 0.1 1.1 0.6 1.4 0.5 0.4 1.1 0.4 1.6 0.1l6-3.2 6 3.2c0.5 0.3 1.1 0.3 1.6-0.1 0.5-0.3 0.7-0.9 0.6-1.4l-1.1-6.9 4.9-4.8c0.4-0.4 0.5-1 0.3-1.5-0.2-0.6-0.6-1-1.2-1.1l-6.7-1z"/>
	<path id="star copy 6" class="s0" d="m136.8 52.8c-0.2-0.5-0.7-0.8-1.3-0.8-0.6 0-1.1 0.3-1.4 0.8l-3 6.2-6.7 1c-0.6 0.1-1.1 0.5-1.2 1.1-0.2 0.5-0.1 1.1 0.3 1.5l4.9 4.8-1.1 6.9c-0.1 0.5 0.1 1.1 0.6 1.4 0.5 0.4 1.1 0.4 1.6 0.1l6-3.2 6 3.2c0.5 0.3 1.1 0.3 1.6-0.1 0.5-0.3 0.7-0.9 0.6-1.4l-1.1-6.9 4.9-4.8c0.4-0.4 0.5-1 0.3-1.5-0.2-0.6-0.6-1-1.2-1.1l-6.7-1z"/>
	<path id="star copy 7" class="s0" d="m377.8 52.8c-0.2-0.5-0.7-0.8-1.3-0.8-0.6 0-1.1 0.3-1.4 0.8l-3 6.2-6.7 1c-0.6 0.1-1.1 0.5-1.2 1.1-0.2 0.5-0.1 1.1 0.3 1.5l4.9 4.8-1.1 6.9c-0.1 0.5 0.1 1.1 0.6 1.4 0.5 0.4 1.1 0.4 1.6 0.1l6-3.2 6 3.2c0.5 0.3 1.1 0.3 1.6-0.1 0.5-0.3 0.7-0.9 0.6-1.4l-1.1-6.9 4.9-4.8c0.4-0.4 0.5-1 0.3-1.5-0.2-0.6-0.6-1-1.2-1.1l-6.7-1z"/>
	<path id="star copy 8" class="s0" d="m422.8 98.8c-0.2-0.5-0.7-0.8-1.3-0.8-0.6 0-1.1 0.3-1.4 0.8l-3 6.2-6.7 1c-0.6 0.1-1.1 0.5-1.2 1.1-0.2 0.5-0.1 1.1 0.3 1.5l4.9 4.8-1.1 6.9c-0.1 0.5 0.1 1.1 0.6 1.4 0.5 0.4 1.1 0.4 1.6 0.1l6-3.2 6 3.2c0.5 0.3 1.1 0.3 1.6-0.1 0.5-0.3 0.7-0.9 0.6-1.4l-1.1-6.9 4.9-4.8c0.4-0.4 0.5-1 0.3-1.5-0.2-0.6-0.6-1-1.2-1.1l-6.7-1z"/>
	<path id="star copy 9" class="s0" d="m422.8 98.8c-0.2-0.5-0.7-0.8-1.3-0.8-0.6 0-1.1 0.3-1.4 0.8l-3 6.2-6.7 1c-0.6 0.1-1.1 0.5-1.2 1.1-0.2 0.5-0.1 1.1 0.3 1.5l4.9 4.8-1.1 6.9c-0.1 0.5 0.1 1.1 0.6 1.4 0.5 0.4 1.1 0.4 1.6 0.1l6-3.2 6 3.2c0.5 0.3 1.1 0.3 1.6-0.1 0.5-0.3 0.7-0.9 0.6-1.4l-1.1-6.9 4.9-4.8c0.4-0.4 0.5-1 0.3-1.5-0.2-0.6-0.6-1-1.2-1.1l-6.7-1z"/>
	<path id="star copy 10" class="s0" d="m91.8 98.8c-0.2-0.5-0.7-0.8-1.3-0.8-0.6 0-1.1 0.3-1.4 0.8l-3 6.2-6.7 1c-0.6 0.1-1.1 0.5-1.2 1.1-0.2 0.5-0.1 1.1 0.3 1.5l4.9 4.8-1.1 6.9c-0.1 0.5 0.1 1.1 0.6 1.4 0.5 0.4 1.1 0.4 1.6 0.1l6-3.2 6 3.2c0.5 0.3 1.1 0.3 1.6-0.1 0.5-0.3 0.7-0.9 0.6-1.4l-1.1-6.9 4.9-4.8c0.4-0.4 0.5-1 0.3-1.5-0.2-0.6-0.6-1-1.2-1.1l-6.7-1z"/>
	<path id="star copy 11" class="s0" d="m62.8 155.8c-0.2-0.5-0.7-0.8-1.3-0.8-0.6 0-1.1 0.3-1.4 0.8l-3 6.2-6.7 1c-0.6 0.1-1.1 0.5-1.2 1.1-0.2 0.5-0.1 1.1 0.3 1.5l4.9 4.8-1.1 6.9c-0.1 0.5 0.1 1.1 0.6 1.4 0.5 0.4 1.1 0.4 1.6 0.1l6-3.2 6 3.2c0.5 0.3 1.1 0.3 1.6-0.1 0.5-0.3 0.7-0.9 0.6-1.4l-1.1-6.9 4.9-4.8c0.4-0.4 0.5-1 0.3-1.5-0.2-0.6-0.6-1-1.2-1.1l-6.7-1z"/>
	<path id="star copy 12" class="s0" d="m451.8 155.8c-0.2-0.5-0.7-0.8-1.3-0.8-0.6 0-1.1 0.3-1.4 0.8l-3 6.2-6.7 1c-0.6 0.1-1.1 0.5-1.2 1.1-0.2 0.5-0.1 1.1 0.3 1.5l4.9 4.8-1.1 6.9c-0.1 0.5 0.1 1.1 0.6 1.4 0.5 0.4 1.1 0.4 1.6 0.1l6-3.2 6 3.2c0.5 0.3 1.1 0.3 1.6-0.1 0.5-0.3 0.7-0.9 0.6-1.4l-1.1-6.9 4.9-4.8c0.4-0.4 0.5-1 0.3-1.5-0.2-0.6-0.6-1-1.2-1.1l-6.7-1z"/>
	<path id="star copy" class="s0" d="m257.8 13.8c-0.2-0.5-0.7-0.8-1.3-0.8-0.6 0-1.1 0.3-1.4 0.8l-3 6.2-6.7 1c-0.6 0.1-1.1 0.5-1.2 1.1-0.2 0.5-0.1 1.1 0.3 1.5l4.9 4.8-1.1 6.9c-0.1 0.5 0.1 1.1 0.6 1.4 0.5 0.4 1.1 0.4 1.6 0.1l6-3.2 6 3.2c0.5 0.3 1.1 0.3 1.6-0.1 0.5-0.3 0.7-0.9 0.6-1.4l-1.1-6.9 4.9-4.8c0.4-0.4 0.5-1 0.3-1.5-0.2-0.6-0.6-1-1.2-1.1l-6.7-1z"/>
	<path id="star copy 2" class="s0" d="m320.8 24.8c-0.2-0.5-0.7-0.8-1.3-0.8-0.6 0-1.1 0.3-1.4 0.8l-3 6.2-6.7 1c-0.6 0.1-1.1 0.5-1.2 1.1-0.2 0.5-0.1 1.1 0.3 1.5l4.9 4.8-1.1 6.9c-0.1 0.5 0.1 1.1 0.6 1.4 0.5 0.4 1.1 0.4 1.6 0.1l6-3.2 6 3.2c0.5 0.3 1.1 0.3 1.6-0.1 0.5-0.3 0.7-0.9 0.6-1.4l-1.1-6.9 4.9-4.8c0.4-0.4 0.5-1 0.3-1.5-0.2-0.6-0.6-1-1.2-1.1l-6.7-1z"/>
	<path id="star copy 3" class="s0" d="m193.8 24.8c-0.2-0.5-0.7-0.8-1.3-0.8-0.6 0-1.1 0.3-1.4 0.8l-3 6.2-6.7 1c-0.6 0.1-1.1 0.5-1.2 1.1-0.2 0.5-0.1 1.1 0.3 1.5l4.9 4.8-1.1 6.9c-0.1 0.5 0.1 1.1 0.6 1.4 0.5 0.4 1.1 0.4 1.6 0.1l6-3.2 6 3.2c0.5 0.3 1.1 0.3 1.6-0.1 0.5-0.3 0.7-0.9 0.6-1.4l-1.1-6.9 4.9-4.8c0.4-0.4 0.5-1 0.3-1.5-0.2-0.6-0.6-1-1.2-1.1l-6.7-1z"/>
</svg>